<svg width="144" height="105" viewBox="0 0 144 105" fill="none" xmlns="http://www.w3.org/2000/svg">
<path d="M73.9626 35.8687L73.9622 35.8688L56.5295 41.4721C54.4845 42.1301 54.4844 44.8696 56.5292 45.5278C56.5293 45.5278 56.5294 45.5278 56.5295 45.5279L73.9622 51.1312L73.9624 51.1313C77.9371 52.4099 81.5517 54.5653 84.5188 57.4294C87.4861 60.2937 89.7244 63.7882 91.0534 67.6376L91.0535 67.6379L96.8585 84.4656L96.86 84.4698C97.0035 84.8918 97.2836 85.2658 97.6674 85.5341C98.0516 85.8027 98.5181 85.9499 99.0002 85.9499C99.4823 85.9499 99.9488 85.8027 100.333 85.5341C100.717 85.2658 100.997 84.8918 101.14 84.4698L101.142 84.4656L106.947 67.6379L106.947 67.6376C108.276 63.7882 110.514 60.2937 113.482 57.4294C116.449 54.5653 120.063 52.4099 124.038 51.1313L124.038 51.1312L141.471 45.5278L141.475 45.5265C141.931 45.3821 142.322 45.1044 142.596 44.7395C142.869 44.3752 143.013 43.9413 143.013 43.5C143.013 43.0586 142.869 42.6248 142.596 42.2605C142.322 41.8956 141.931 41.6179 141.475 41.4735L141.471 41.4722L124.047 35.8688C124.047 35.8688 124.047 35.8688 124.047 35.8687C120.071 34.5913 116.454 32.4365 113.486 29.5724C110.517 26.708 108.277 23.2129 106.947 19.3625L106.947 19.3621L101.142 2.53473C101.142 2.53463 101.142 2.53453 101.142 2.53443C100.462 0.566032 97.5384 0.566071 96.8585 2.53458L73.9626 35.8687ZM73.9626 35.8687C77.9382 34.5891 81.5535 32.4324 84.5207 29.5666C87.488 26.7008 89.7257 23.2045 91.0535 19.3536C91.0535 19.3535 91.0536 19.3534 91.0536 19.3533L96.8584 2.53473L73.9626 35.8687ZM1.17184 17.6646L1.20577 17.6755L8.16269 19.9082C8.16271 19.9082 8.16274 19.9082 8.16277 19.9082C11.5668 21.0003 14.2497 23.5802 15.3907 26.8941L17.7083 33.6057C17.7087 33.6069 17.7092 33.608 17.7096 33.6092C17.7265 33.6538 17.7592 33.6985 17.8097 33.7332C17.862 33.7691 17.9286 33.7908 18.0002 33.7908C18.0718 33.7908 18.1384 33.7691 18.1906 33.7332C18.2412 33.6985 18.274 33.6538 18.2908 33.6091C18.2912 33.608 18.2917 33.6068 18.2921 33.6057L20.6098 26.9025L1.17184 17.6646ZM1.17184 17.6646C1.12421 17.6421 1.08652 17.61 1.06033 17.5745C1.02813 17.5308 1.01367 17.4829 1.01367 17.4375C1.01367 17.3921 1.02814 17.3442 1.06033 17.3005C1.09232 17.2571 1.14145 17.2189 1.2049 17.1969C1.20612 17.1964 1.20733 17.196 1.20856 17.1956L8.16269 14.9581C11.5667 13.866 14.2497 11.2861 15.3907 7.97226L17.7083 1.26059C17.7087 1.25945 17.7092 1.2583 17.7096 1.25716C17.7264 1.21249 17.7592 1.16785 17.8097 1.13315L17.2435 0.308899L17.8098 1.13313C17.862 1.09722 17.9286 1.07551 18.0002 1.07551C18.0718 1.07551 18.1384 1.09722 18.1906 1.13314C18.2412 1.16785 18.2739 1.21247 18.2908 1.25712C18.2912 1.25827 18.2916 1.25943 18.2921 1.26058L20.6098 7.97251C20.6098 7.97271 20.6099 7.9729 20.61 7.9731C21.1727 9.6056 22.1208 11.0857 23.376 12.2974C24.6313 13.5091 26.1593 14.4192 27.8375 14.9581L34.7918 17.1956C34.793 17.196 34.7943 17.1964 34.7955 17.1969C34.8589 17.2189 34.9081 17.2571 34.9401 17.3005C34.9723 17.3442 34.9867 17.3921 34.9867 17.4375C34.9867 17.4829 34.9723 17.5308 34.9401 17.5745C34.9081 17.6179 34.859 17.6561 34.7955 17.6781C34.7943 17.6786 34.7931 17.679 34.7918 17.6794L27.8375 19.917C26.1593 20.4558 24.6313 21.3659 23.376 22.5776C22.1209 23.7892 21.1728 25.2692 20.6101 26.9015L1.17184 17.6646ZM10.6383 79.0876L10.6367 79.0871C10.4409 79.0245 10.2767 78.9059 10.1636 78.7547C10.0508 78.604 9.99311 78.4274 9.99311 78.25C9.99311 78.0726 10.0508 77.896 10.1636 77.7453C10.2767 77.5941 10.4408 77.4755 10.6367 77.4129L10.6383 77.4124L21.0963 74.0503L21.097 74.0501C26.048 72.454 29.9451 68.702 31.6082 63.8951L31.6085 63.8943L35.0915 53.7994L35.0921 53.7977C35.1508 53.6266 35.2661 53.4712 35.4286 53.3579C35.5915 53.2443 35.7916 53.1807 36.0002 53.1807C36.2088 53.1807 36.4089 53.2443 36.5718 53.3579C36.7343 53.4712 36.8496 53.6266 36.9083 53.7977L36.9089 53.7994L40.3919 63.8943L40.3919 63.8944C41.2102 66.2651 42.5881 68.4159 44.4135 70.178C46.2387 71.9398 48.4614 73.2647 50.904 74.0503L50.9041 74.0503L61.3621 77.4124L61.3637 77.4129C61.5595 77.4755 61.7237 77.5941 61.8368 77.7453C61.9496 77.896 62.0073 78.0726 62.0073 78.25C62.0073 78.4274 61.9496 78.604 61.8368 78.7547C61.7237 78.9059 61.5595 79.0245 61.3637 79.0871L61.3621 79.0876L50.9041 82.4497L50.904 82.4497C48.4614 83.2353 46.2387 84.5602 44.4135 86.322C42.5881 88.0841 41.2102 90.2349 40.3919 92.6056L40.3919 92.6057L36.9089 102.701L36.9083 102.702C36.8496 102.873 36.7343 103.029 36.5718 103.142C36.4089 103.256 36.2088 103.319 36.0002 103.319C35.7916 103.319 35.5915 103.256 35.4286 103.142C35.2661 103.029 35.1508 102.873 35.0921 102.702L35.0915 102.701L31.6085 92.6057L31.6085 92.6056C30.7902 90.2349 29.4123 88.0841 27.5869 86.322C25.7617 84.5602 23.539 83.2353 21.0964 82.4497L21.0963 82.4497L10.6383 79.0876Z" fill="#FF90E8" stroke="black" stroke-width="2"/>
</svg>
